<svg width="271" height="138" viewBox="0 0 271 138" fill="none" xmlns="http://www.w3.org/2000/svg">
<path d="M0.128907 5.99999V0.399995H40.1289L117.329 132.2V138H77.5289L0.128907 5.99999ZM79.3289 50.6V0.399995H117.329V115.6L79.3289 50.6ZM0.128907 22.6L38.1289 87.6V138H0.128907V22.6ZM136.793 72.2V69.2H155.193L183.993 130.4L180.693 138H167.693L136.793 72.2ZM193.293 109.1H192.893L186.193 125.3L177.593 106.9L193.293 69.2H212.293V138H193.293V109.1ZM136.793 82.1L155.193 121.3V138H136.793V82.1ZM225.27 69.2H245.27V138H225.27V69.2ZM249.47 121.9H270.87V138H249.47V121.9Z" fill="#E7FF10"/>
</svg>
